<svg width="300" height="61" viewBox="0 0 300 61" fill="none" xmlns="http://www.w3.org/2000/svg">
<path d="M76.1813 19.4753C79.4904 31.64 70.5084 46.98 64.0729 55.2272C63.6796 55.7312 62.895 55.7727 62.4725 55.3148C57.069 49.4586 51.0012 41.0928 47.6042 34.1693C44.0324 26.8897 41.0505 22.4039 45.472 16.5036C48.9866 11.8135 58.3526 10.0588 58.3526 10.0588C58.3526 10.0588 72.7376 6.81555 76.1813 19.4753Z" fill="white" stroke="black"/>
<path opacity="0.19" d="M58.348 18.2197C67.1096 27.9042 66.2966 45.2384 64.4085 55.1946C64.2907 55.8155 63.627 56.1736 63.0477 55.9335C55.3799 52.756 45.9032 47.5597 39.5348 42.6252C32.852 37.447 28.0291 34.5606 29.2167 27.5108C30.1607 21.9071 37.7811 16.6714 37.7811 16.6714C37.7811 16.6714 49.2246 8.13528 58.348 18.2197Z" fill="white"/>
<path opacity="0.19" d="M98.6273 35.7134C92.4676 46.943 74.6431 53.391 63.851 55.9115C63.2148 56.0601 62.5914 55.5699 62.6079 54.9275C62.8054 47.1971 65.3587 36.298 66.6437 30.2683C68.0005 23.9013 68.6231 17.039 77.3145 15.4657C83.4507 14.3549 91.7414 18.0894 91.7414 18.0894C91.7414 18.0894 105.032 24.0369 98.6273 35.7134Z" fill="white"/>
<path d="M99.322 35.5842C93.1624 46.8138 75.3378 53.2618 64.5457 55.7823C63.9096 55.9309 63.2857 55.4401 63.2914 54.797C63.3583 47.1792 64.6955 37.3024 67.032 30.0649C69.5004 22.4188 70.4255 17.25 78.0092 15.3365C84.0373 13.8154 92.4361 17.9602 92.4361 17.9602C92.4361 17.9602 105.727 23.9077 99.322 35.5842Z" fill="white" stroke="black"/>
<path opacity="0.19" d="M103.846 47.1656C94.0961 56.0685 74.9349 57.1053 63.816 56.4199C63.1629 56.3796 62.7441 55.7284 62.9751 55.1142C65.6866 47.9049 70.3852 38.9187 75.1151 32.7191C80.1149 26.1656 82.7892 21.5234 90.6523 21.8697C96.9025 22.145 103.434 28.4741 103.434 28.4741C103.434 28.4741 113.982 37.9092 103.846 47.1656Z" fill="white"/>
<path d="M57.6541 18.0922C66.3721 27.809 65.481 45.1402 63.548 55.0893C63.4275 55.7097 62.762 56.0652 62.1837 55.823C54.5303 52.6172 45.0772 47.386 38.7312 42.4279C32.0717 37.2251 27.2619 34.3209 28.4812 27.2755C29.4505 21.6754 37.0943 16.4679 37.0943 16.4679C37.0943 16.4679 48.5762 7.97415 57.6541 18.0922Z" fill="white" stroke="black"/>
<path d="M104.621 47.1136C94.8557 56.0024 75.6928 57.0116 64.5751 56.3102C63.9221 56.269 63.5044 55.6171 63.7365 55.0033C66.4606 47.7979 71.1749 38.8185 75.9157 32.6257C80.9271 26.0794 83.6095 21.4411 91.472 21.7987C97.7217 22.083 104.242 28.4215 104.242 28.4215C104.242 28.4215 114.774 37.8718 104.621 47.1136Z" fill="white" stroke="black"/>
<path d="M126.033 45H122.883V27.6H126.033V29.4H126.483C126.816 28.7167 127.3 28.1917 127.933 27.825C128.566 27.4417 129.375 27.25 130.358 27.25C131.091 27.25 131.783 27.3917 132.433 27.675C133.1 27.9583 133.675 28.375 134.158 28.925C134.658 29.4583 135.05 30.1167 135.333 30.9C135.633 31.6833 135.783 32.575 135.783 33.575V34.025C135.783 35.0417 135.641 35.9417 135.358 36.725C135.075 37.5083 134.691 38.175 134.208 38.725C133.725 39.2583 133.15 39.6667 132.483 39.95C131.833 40.2167 131.125 40.35 130.358 40.35C129.791 40.35 129.3 40.2917 128.883 40.175C128.466 40.0583 128.1 39.9 127.783 39.7C127.483 39.5 127.225 39.275 127.008 39.025C126.808 38.7583 126.633 38.4833 126.483 38.2H126.033V45ZM129.333 37.35C130.316 37.35 131.108 37.05 131.708 36.45C132.325 35.8333 132.633 35 132.633 33.95V33.65C132.633 32.6 132.325 31.775 131.708 31.175C131.108 30.5583 130.316 30.25 129.333 30.25C128.35 30.25 127.55 30.5667 126.933 31.2C126.333 31.8167 126.033 32.6333 126.033 33.65V33.95C126.033 34.9667 126.333 35.7917 126.933 36.425C127.55 37.0417 128.35 37.35 129.333 37.35ZM141.616 34.825C141.632 35.1917 141.716 35.5333 141.866 35.85C142.032 36.15 142.249 36.4167 142.516 36.65C142.799 36.8667 143.116 37.0417 143.466 37.175C143.832 37.2917 144.216 37.35 144.616 37.35C145.399 37.35 145.999 37.2167 146.416 36.95C146.832 36.6667 147.132 36.3333 147.316 35.95L150.016 37.45C149.866 37.7667 149.657 38.1 149.391 38.45C149.124 38.7833 148.774 39.0917 148.341 39.375C147.924 39.6583 147.407 39.8917 146.791 40.075C146.191 40.2583 145.482 40.35 144.666 40.35C143.732 40.35 142.882 40.2 142.116 39.9C141.349 39.6 140.682 39.1667 140.116 38.6C139.566 38.0333 139.132 37.3417 138.816 36.525C138.516 35.7083 138.366 34.7833 138.366 33.75V33.6C138.366 32.65 138.524 31.7833 138.841 31C139.174 30.2167 139.624 29.55 140.191 29C140.757 28.45 141.416 28.025 142.166 27.725C142.932 27.4083 143.749 27.25 144.616 27.25C145.682 27.25 146.599 27.4417 147.366 27.825C148.132 28.1917 148.766 28.6667 149.266 29.25C149.766 29.8167 150.132 30.45 150.366 31.15C150.599 31.8333 150.716 32.5 150.716 33.15V34.825H141.616ZM144.591 30.1C143.791 30.1 143.141 30.3083 142.641 30.725C142.141 31.125 141.816 31.5917 141.666 32.125H147.516C147.416 31.5417 147.099 31.0583 146.566 30.675C146.049 30.2917 145.391 30.1 144.591 30.1ZM153.798 27.6H157.473V22.5H160.623V27.6H165.098V30.6H160.623V36.25C160.623 36.75 160.848 37 161.298 37H164.648V40H159.398C158.832 40 158.365 39.8167 157.998 39.45C157.648 39.0833 157.473 38.6167 157.473 38.05V30.6H153.798V27.6ZM177.481 38.2C177.148 38.9833 176.681 39.5417 176.081 39.875C175.481 40.1917 174.781 40.35 173.981 40.35C173.231 40.35 172.523 40.2083 171.856 39.925C171.206 39.6417 170.631 39.225 170.131 38.675C169.631 38.125 169.231 37.4583 168.931 36.675C168.648 35.8917 168.506 35 168.506 34V33.6C168.506 32.6167 168.648 31.7333 168.931 30.95C169.214 30.1667 169.598 29.5 170.081 28.95C170.564 28.4 171.123 27.9833 171.756 27.7C172.406 27.4 173.098 27.25 173.831 27.25C174.714 27.25 175.423 27.4 175.956 27.7C176.506 28 176.939 28.4667 177.256 29.1H177.706V27.6H180.856V36.25C180.856 36.75 181.081 37 181.531 37H182.006V40H179.856C179.289 40 178.823 39.8333 178.456 39.5C178.106 39.1667 177.931 38.7333 177.931 38.2H177.481ZM174.681 37.35C175.598 37.35 176.331 37.05 176.881 36.45C177.431 35.8333 177.706 35 177.706 33.95V33.65C177.706 32.6 177.431 31.775 176.881 31.175C176.331 30.5583 175.598 30.25 174.681 30.25C173.764 30.25 173.031 30.5583 172.481 31.175C171.931 31.775 171.656 32.6 171.656 33.65V33.95C171.656 35 171.931 35.8333 172.481 36.45C173.031 37.05 173.764 37.35 174.681 37.35ZM184.689 37H189.039V25.5H184.839V22.5H192.189V37H196.239V40H184.689V37ZM214.779 22.5H227.379V25.65H222.729V40H219.429V25.65H214.779V22.5ZM233.461 34.825C233.478 35.1917 233.561 35.5333 233.711 35.85C233.878 36.15 234.095 36.4167 234.361 36.65C234.645 36.8667 234.961 37.0417 235.311 37.175C235.678 37.2917 236.061 37.35 236.461 37.35C237.245 37.35 237.845 37.2167 238.261 36.95C238.678 36.6667 238.978 36.3333 239.161 35.95L241.861 37.45C241.711 37.7667 241.503 38.1 241.236 38.45C240.97 38.7833 240.62 39.0917 240.186 39.375C239.77 39.6583 239.253 39.8917 238.636 40.075C238.036 40.2583 237.328 40.35 236.511 40.35C235.578 40.35 234.728 40.2 233.961 39.9C233.195 39.6 232.528 39.1667 231.961 38.6C231.411 38.0333 230.978 37.3417 230.661 36.525C230.361 35.7083 230.211 34.7833 230.211 33.75V33.6C230.211 32.65 230.37 31.7833 230.686 31C231.02 30.2167 231.47 29.55 232.036 29C232.603 28.45 233.261 28.025 234.011 27.725C234.778 27.4083 235.595 27.25 236.461 27.25C237.528 27.25 238.445 27.4417 239.211 27.825C239.978 28.1917 240.611 28.6667 241.111 29.25C241.611 29.8167 241.978 30.45 242.211 31.15C242.445 31.8333 242.561 32.5 242.561 33.15V34.825H233.461ZM236.436 30.1C235.636 30.1 234.986 30.3083 234.486 30.725C233.986 31.125 233.661 31.5917 233.511 32.125H239.361C239.261 31.5417 238.945 31.0583 238.411 30.675C237.895 30.2917 237.236 30.1 236.436 30.1ZM258.094 35.45C257.811 36.9167 257.136 38.1 256.069 39C255.019 39.9 253.611 40.35 251.844 40.35C250.927 40.35 250.069 40.2083 249.269 39.925C248.486 39.6417 247.802 39.2333 247.219 38.7C246.636 38.1667 246.177 37.5083 245.844 36.725C245.511 35.9417 245.344 35.05 245.344 34.05V33.75C245.344 32.75 245.511 31.85 245.844 31.05C246.177 30.25 246.636 29.5667 247.219 29C247.819 28.4333 248.511 28 249.294 27.7C250.094 27.4 250.944 27.25 251.844 27.25C253.577 27.25 254.977 27.7 256.044 28.6C257.127 29.5 257.811 30.6833 258.094 32.15L254.994 32.95C254.894 32.2167 254.577 31.5833 254.044 31.05C253.511 30.5167 252.761 30.25 251.794 30.25C251.344 30.25 250.919 30.3333 250.519 30.5C250.119 30.6667 249.769 30.9083 249.469 31.225C249.169 31.525 248.927 31.9 248.744 32.35C248.577 32.7833 248.494 33.275 248.494 33.825V33.975C248.494 34.525 248.577 35.0167 248.744 35.45C248.927 35.8667 249.169 36.2167 249.469 36.5C249.769 36.7833 250.119 37 250.519 37.15C250.919 37.2833 251.344 37.35 251.794 37.35C252.761 37.35 253.494 37.1083 253.994 36.625C254.511 36.1417 254.844 35.4917 254.994 34.675L258.094 35.45ZM264.502 40H261.352V22.5H264.502V29.6H264.952C265.268 28.85 265.735 28.275 266.352 27.875C266.968 27.4583 267.727 27.25 268.627 27.25C269.243 27.25 269.81 27.35 270.327 27.55C270.843 27.75 271.293 28.05 271.677 28.45C272.06 28.85 272.36 29.3667 272.577 30C272.793 30.6167 272.902 31.35 272.902 32.2V40H269.752V32.95C269.752 32.0667 269.535 31.375 269.102 30.875C268.685 30.3583 268.077 30.1 267.277 30.1C266.343 30.1 265.643 30.4167 265.177 31.05C264.727 31.6667 264.502 32.5 264.502 33.55V40Z" fill="black"/>
</svg>
